<svg xmlns="http://www.w3.org/2000/svg" version="1.1" viewBox="-5.0 -10.0 110.0 135.0">
 <path d="m64.484 12.672v-0.8125c0-0.77734 0.62891-1.4062 1.4062-1.4062s1.4062 0.62891 1.4062 1.4062v0.8125c0 0.77734-0.62891 1.4062-1.4062 1.4062s-1.4062-0.62891-1.4062-1.4062zm5.2734 20.906v7.1406c0 0.77734 0.62891 1.4062 1.4062 1.4062 0.77734 0 1.4062-0.62891 1.4062-1.4062v-7.1406c0-0.77734-0.62891-1.4062-1.4062-1.4062-0.77734 0-1.4062 0.62891-1.4062 1.4062zm-10.547 0v2.3672c0 0.77734 0.62891 1.4062 1.4062 1.4062 0.77734 0 1.4062-0.62891 1.4062-1.4062v-2.3672c0-0.77734-0.62891-1.4062-1.4062-1.4062-0.77734 0-1.4062 0.62891-1.4062 1.4062zm-37.238-18.031c-0.77734 0-1.4062 0.62891-1.4062 1.4062s0.62891 1.4062 1.4062 1.4062h3.1016c0.77734 0 1.4062-0.62891 1.4062-1.4062s-0.62891-1.4062-1.4062-1.4062zm19.707 9.8438h-7.6641c-0.77734 0-1.4062 0.62891-1.4062 1.4062s0.62891 1.4062 1.4062 1.4062h7.6641c0.77734 0 1.4062-0.62891 1.4062-1.4062s-0.62891-1.4062-1.4062-1.4062zm53.32 50.633c0 2.9531-0.94531 5.8398-2.668 8.1328-0.48828 0.65234-1.0352 1.2422-1.625 1.7773v8.3633h-65.043-1.1719-10.07c-0.64844 0-1.1914-0.4375-1.3555-1.0312-0.058594-0.15625-0.09375-0.32422-0.09375-0.5v-9.7305c-4.7344-2.2617-7.9727-8.3711-7.9727-15.238 0-4.2344 1.1992-8.2344 3.3711-11.262 1.3164-1.832 2.9023-3.1875 4.6406-4.0039l0.003906-45.422c0-0.41406 0.18359-0.80469 0.49609-1.0742 0.31641-0.26562 0.73047-0.38281 1.1406-0.3125l31.641 5.2734c0.67969 0.11328 1.1758 0.69922 1.1758 1.3867v45.961c0 0.77734-0.62891 1.4062-1.4062 1.4062s-1.4062-0.62891-1.4062-1.4062v-10.453h-24.883c-0.77734 0-1.4062-0.62891-1.4062-1.4062s0.62891-1.4062 1.4062-1.4062h24.883v-26.719h-14.371c-0.77734 0-1.4062-0.62891-1.4062-1.4062s0.62891-1.4062 1.4062-1.4062h14.371v-1.9727l-28.828-4.8047v16.621h12.223c0.77734 0 1.4062 0.62891 1.4062 1.4062s-0.62891 1.4062-1.4062 1.4062h-12.223v7.0312h20.566c0.77734 0 1.4062 0.62891 1.4062 1.4062s-0.62891 1.4062-1.4062 1.4062h-20.566v13.656c0.39062-0.050781 0.78906-0.078125 1.1914-0.078125 2.6875 0 5.2188 1.1562 7.2969 3.2969h15.188c0.77734 0 1.4062 0.62891 1.4062 1.4062s-0.62891 1.4062-1.4062 1.4062h-13.062c1.2109 2.0547 2.0234 4.4609 2.3828 7.0312h6.1641v-2.8125h16.016l1.9531-36.914h3.4414v-6.6797h8.0859v-1.9336c0-0.77734 0.62891-1.4062 1.4062-1.4062s1.4062 0.62891 1.4062 1.4062v1.9336h8.0859v6.6797h3.4414l0.99219 18.762c0.039063 0.77734-0.55469 1.4375-1.3281 1.4805-0.76953 0.042969-1.4375-0.55469-1.4805-1.3281l-0.85156-16.098h-20.535l-1.8047 34.102h1.7344v-9.1406h2.8125v-5.2734h0.84375v-6.9648c0-0.77734 0.62891-1.4062 1.4062-1.4062 0.77734 0 1.4062 0.62891 1.4062 1.4062v6.9648h2.4609v-13.961c0-0.77734 0.62891-1.4062 1.4062-1.4062 0.77734 0 1.4062 0.62891 1.4062 1.4062v13.961h2.4609v-2.4609c0-0.77734 0.62891-1.4062 1.4062-1.4062s1.4062 0.62891 1.4062 1.4062v2.4609h15.328v5.2734h2.8125v13.312c2.6211 2.375 4.2891 5.9336 4.2891 9.9023zm-35.789-50.984h13.359v-3.8672h-13.359zm-42.656 34.035c1.9023 0.035156 3.4492 1.6445 3.4492 3.5859v1.2148c1.0938-0.51172 2.4141-0.46484 3.4609 0.24609 0.78906 0.53125 1.3164 1.3398 1.4883 2.2773s-0.035156 1.8789-0.58203 2.6562l-4.3711 6.2148v3.6914c0.96875-1.1172 2.3008-1.9141 3.8125-2.2031 1.5508-2.4688 2.4062-5.6289 2.4062-8.9648 0-7.3672-4.1289-13.359-9.2031-13.359s-9.2031 5.9922-9.2031 13.359c0 5.1641 2.0508 9.7734 5.1602 11.988v-17.195c0-0.95313 0.375-1.8438 1.0508-2.5078 0.67969-0.66797 1.582-1.0234 2.5273-1.0078zm0.89453 14.945 4.625-6.582c0.14844-0.21094 0.13672-0.42188 0.11719-0.53125-0.019531-0.10938-0.085937-0.3125-0.29688-0.45703-0.30859-0.21094-0.76953-0.10156-1.0078 0.23438l-1.1328 1.6133c-0.35156 0.5-0.98828 0.71875-1.5742 0.53125-0.58594-0.18359-0.98047-0.72656-0.98047-1.3398v-4.832c0-0.41406-0.31641-0.76562-0.6875-0.77344-0.25781-0.003906-0.42578 0.125-0.50781 0.20313-0.078125 0.078124-0.21094 0.24609-0.21094 0.5v28.789l1.4062 0.019531v-16.57c0-0.28906 0.089843-0.57031 0.25391-0.80859zm6.2227 15.898c-1.4492-0.30859-2.7266-1.0898-3.668-2.1758v3.7422h3.668zm5.3047-6.5664c0-2.1523-1.75-3.9023-3.9023-3.9023-2.1523 0-3.9023 1.75-3.9023 3.9023 0 2.1523 1.75 3.9023 3.9023 3.9023 2.1523 0 3.9023-1.75 3.9023-3.9023zm6.0117 3.9141h-4.4609c-0.95703 1.332-2.3867 2.2969-4.043 2.6523v1.5664h8.5039zm0-9.8438h-6.7695c2.125 1.1289 3.5742 3.3633 3.5742 5.9297 0 0.375-0.03125 0.74219-0.089844 1.1016h3.2891v-7.0312zm0-9.8438h-5.957c0 0.074219 0.003906 0.14453 0.003906 0.21875 0 2.3828-0.38672 4.6992-1.1094 6.8125h7.0664v-7.0312zm20.566-2.8125h-17.754v26.719h17.754zm5.625-11.953h23.906v-2.4609h-23.906zm3.6484 28.477h7.1953c-0.67578-1.6211-1.0508-3.4062-1.0508-5.2656 0-1.7227 0.31641-3.3633 0.88672-4.8672h-0.12891v-4.2812h2.7695c1.5078-1.6211 3.4102-2.8164 5.5352-3.3945v-3.9961h2.8125v3.6055c0.046875 0 0.09375-0.003906 0.14062-0.003906 1.75 0 3.4102 0.40625 4.9141 1.1367v-8.5938h-29.531v35.859h5.0547v-8.7891c0-0.77734 0.62891-1.4062 1.4062-1.4062zm14.641 7.1133c-1.8945-0.625-3.5742-1.7422-4.9297-3.1953v3.1445c0 0.77734-0.62891 1.4062-1.4062 1.4062-0.77734 0-1.4062-0.62891-1.4062-1.4062v-4.25h-5.4922v7.3828h13.234zm4.2188-9.9219c0-0.41406-0.31641-0.76562-0.6875-0.77344h-0.015625c-0.25 0-0.41406 0.125-0.49219 0.20312-0.078126 0.078125-0.21094 0.24609-0.21094 0.5v12.969l1.4062 0.019532zm4.2109 9.3555c-0.45313 0.21875-0.92188 0.41016-1.3984 0.56641v3.082h1.3984zm4.2891-11.812c0-5.5859-4.1289-10.129-9.2031-10.129s-9.2031 4.543-9.2031 10.129c0 4.1328 2.3125 7.8164 5.6875 9.3594v-6.9727c0-0.95312 0.375-1.8438 1.0508-2.5078 0.67969-0.66797 1.5781-1.0234 2.5273-1.0078 1.9023 0.035157 3.4492 1.6445 3.4492 3.5859v6.9062c3.375-1.543 5.6875-5.2305 5.6875-9.3594zm-28.766-12.262h2.8125v-4.2812h-2.8125zm11.117-4.2773h-2.8125v4.2812h2.8125zm-11.117 11.672h2.8125v-4.2812h-2.8125zm0 7.3945h2.8125v-4.2812h-2.8125zm-10.277-10.039h-4.2812v2.8125h4.2812zm0 8.3047h-4.2812v2.8125h4.2812zm0 8.3047h-4.2812v2.8125h4.2812zm-7.1836-16.609h-4.2812v2.8125h4.2812zm0 8.3047h-4.2812v2.8125h4.2812zm0 8.3047h-4.2812v2.8125h4.2812z" fill="black"/>
</svg>